
<svg width="1440" height="900" viewBox="0 0 1440 900" fill="none" xmlns="http://www.w3.org/2000/svg">
  <g opacity="0.3">
    <path d="M1440 0H0V900H1440V0Z" fill="white"/>
    <path d="M201.5 190.5C169.5 190.5 143 217 143 249C143 249.7 143 250.3 143 251C141.7 250.7 140.3 250.5 139 250.5C116.5 250.5 98 269 98 291.5C98 314 116.5 332.5 139 332.5H246C276.4 332.5 301 307.9 301 277.5C301 247.1 276.4 222.5 246 222.5C240.3 222.5 234.8 223.4 229.5 225C221.2 204.4 203 190.5 201.5 190.5Z" fill="#E3F2FD"/>
    <path d="M801.5 190.5C769.5 190.5 743 217 743 249C743 249.7 743 250.3 743 251C741.7 250.7 740.3 250.5 739 250.5C716.5 250.5 698 269 698 291.5C698 314 716.5 332.5 739 332.5H846C876.4 332.5 901 307.9 901 277.5C901 247.1 876.4 222.5 846 222.5C840.3 222.5 834.8 223.4 829.5 225C821.2 204.4 803 190.5 801.5 190.5Z" fill="#FBE9E7"/>
    <path d="M1201.5 190.5C1169.5 190.5 1143 217 1143 249C1143 249.7 1143 250.3 1143 251C1141.7 250.7 1140.3 250.5 1139 250.5C1116.5 250.5 1098 269 1098 291.5C1098 314 1116.5 332.5 1139 332.5H1246C1276.4 332.5 1301 307.9 1301 277.5C1301 247.1 1276.4 222.5 1246 222.5C1240.3 222.5 1234.8 223.4 1229.5 225C1221.2 204.4 1203 190.5 1201.5 190.5Z" fill="#EDE7F6"/>
    <path d="M401.5 490.5C369.5 490.5 343 517 343 549C343 549.7 343 550.3 343 551C341.7 550.7 340.3 550.5 339 550.5C316.5 550.5 298 569 298 591.5C298 614 316.5 632.5 339 632.5H446C476.4 632.5 501 607.9 501 577.5C501 547.1 476.4 522.5 446 522.5C440.3 522.5 434.8 523.4 429.5 525C421.2 504.4 403 490.5 401.5 490.5Z" fill="#C8E6C9"/>
    <path d="M1001.5 490.5C969.5 490.5 943 517 943 549C943 549.7 943 550.3 943 551C941.7 550.7 940.3 550.5 939 550.5C916.5 550.5 898 569 898 591.5C898 614 916.5 632.5 939 632.5H1046C1076.4 632.5 1101 607.9 1101 577.5C1101 547.1 1076.4 522.5 1046 522.5C1040.3 522.5 1034.8 523.4 1029.5 525C1021.2 504.4 1003 490.5 1001.5 490.5Z" fill="#D1C4E9"/>
    <path d="M101.5 690.5C69.5 690.5 43 717 43 749C43 749.7 43 750.3 43 751C41.7 750.7 40.3 750.5 39 750.5C16.5 750.5 -2 769 -2 791.5C-2 814 16.5 832.5 39 832.5H146C176.4 832.5 201 807.9 201 777.5C201 747.1 176.4 722.5 146 722.5C140.3 722.5 134.8 723.4 129.5 725C121.2 704.4 103 690.5 101.5 690.5Z" fill="#FFCCBC"/>
    <path d="M601.5 790.5C569.5 790.5 543 817 543 849C543 849.7 543 850.3 543 851C541.7 850.7 540.3 850.5 539 850.5C516.5 850.5 498 869 498 891.5C498 914 516.5 932.5 539 932.5H646C676.4 932.5 701 907.9 701 877.5C701 847.1 676.4 822.5 646 822.5C640.3 822.5 634.8 823.4 629.5 825C621.2 804.4 603 790.5 601.5 790.5Z" fill="#F5F5DC"/>
    <path d="M1301.5 690.5C1269.5 690.5 1243 717 1243 749C1243 749.7 1243 750.3 1243 751C1241.7 750.7 1240.3 750.5 1239 750.5C1216.5 750.5 1198 769 1198 791.5C1198 814 1216.5 832.5 1239 832.5H1346C1376.4 832.5 1401 807.9 1401 777.5C1401 747.1 1376.4 722.5 1346 722.5C1340.3 722.5 1334.8 723.4 1329.5 725C1321.2 704.4 1303 690.5 1301.5 690.5Z" fill="#BBDEFB"/>
  </g>
</svg>
