
<svg width="120" height="120" viewBox="0 0 120 120" fill="none" xmlns="http://www.w3.org/2000/svg">
  <path d="M60 115C85.4051 115 106 94.4051 106 69C106 43.5949 85.4051 23 60 23C34.5949 23 14 43.5949 14 69C14 94.4051 34.5949 115 60 115Z" fill="#BCAAA4"/>
  <path d="M60 95C71.0457 95 80 86.0457 80 75C80 63.9543 71.0457 55 60 55C48.9543 55 40 63.9543 40 75C40 86.0457 48.9543 95 60 95Z" fill="#F5F5F5"/>
  <path d="M45 67C47.7614 67 50 64.7614 50 62C50 59.2386 47.7614 57 45 57C42.2386 57 40 59.2386 40 62C40 64.7614 42.2386 67 45 67Z" fill="#212121"/>
  <path d="M75 67C77.7614 67 80 64.7614 80 62C80 59.2386 77.7614 57 75 57C72.2386 57 70 59.2386 70 62C70 64.7614 72.2386 67 75 67Z" fill="#212121"/>
  <path d="M45 37C47.7614 37 50 34.7614 50 32C50 29.2386 47.7614 27 45 27C42.2386 27 40 29.2386 40 32C40 34.7614 42.2386 37 45 37Z" fill="#BCAAA4"/>
  <path d="M75 37C77.7614 37 80 34.7614 80 32C80 29.2386 77.7614 27 75 27C72.2386 27 70 29.2386 70 32C70 34.7614 72.2386 37 75 37Z" fill="#BCAAA4"/>
  <path d="M60 85C64.4183 85 68 81.4183 68 77C68 72.5817 64.4183 69 60 69C55.5817 69 52 72.5817 52 77C52 81.4183 55.5817 85 60 85Z" fill="#212121"/>
</svg>
